<svg width="120" height="120" xmlns="http://www.w3.org/2000/svg" xmlns:xlink="http://www.w3.org/1999/xlink" overflow="hidden"><defs><clipPath id="clip0"><rect x="592" y="288" width="120" height="120"/></clipPath><clipPath id="clip1"><rect x="592" y="289" width="119" height="119"/></clipPath><clipPath id="clip2"><rect x="592" y="289" width="119" height="119"/></clipPath><clipPath id="clip3"><rect x="592" y="289" width="119" height="119"/></clipPath></defs><g clip-path="url(#clip0)" transform="translate(-592 -288)"><g clip-path="url(#clip1)"><g clip-path="url(#clip2)"><g clip-path="url(#clip3)"><path d="M625.545 355.635C629.521 355.507 639.632 355.808 647.891 361.472 648.5 361.896 649.224 362.125 649.967 362.129L653.055 362.129C653.768 362.125 654.465 361.914 655.059 361.52 663.761 355.827 673.611 355.515 677.443 355.633 678.146 355.661 678.827 355.379 679.305 354.862 679.81 354.324 680.061 353.594 679.995 352.859L678.125 331.659C678.019 330.367 676.951 329.366 675.654 329.343L675.637 329.343C675.04 329.348 674.167 329.375 673.09 329.457L672.63 324.12 671.696 323.952C664.263 323.033 656.818 325.565 651.487 330.825 646.155 325.566 638.71 323.034 631.277 323.952L630.344 324.12 629.884 329.456C628.813 329.375 627.945 329.348 627.352 329.343L627.334 329.343C626.038 329.366 624.97 330.368 624.865 331.66L622.994 352.86C622.927 353.598 623.179 354.328 623.686 354.867 624.166 355.38 624.844 355.66 625.545 355.635ZM675.655 331.878 677.524 353.157C670.352 352.924 663.233 354.468 656.801 357.652 661.864 354.137 667.649 351.799 673.731 350.807L674.919 350.662 673.306 331.954C674.296 331.887 675.104 331.871 675.655 331.878ZM670.327 326.281 672.247 348.531C665.051 349.851 658.323 353.023 652.726 357.735L652.726 333.102C657.296 328.337 663.74 325.839 670.327 326.281ZM632.646 326.281C639.233 325.839 645.678 328.336 650.247 333.102L650.247 357.735C644.65 353.023 637.922 349.851 630.726 348.531ZM627.333 331.823C627.883 331.827 628.686 331.852 629.671 331.925L628.054 350.662 629.242 350.807C635.131 351.765 640.743 353.984 645.696 357.311 639.373 354.345 632.445 352.896 625.464 353.078Z" fill="#5B9BD5" fill-rule="nonzero" fill-opacity="1"/><path d="M610.591 313.799 608.112 313.799 608.112 370.835 694.887 370.835 694.887 313.799 610.591 313.799ZM692.408 368.355 610.591 368.355 610.591 316.278 692.408 316.278Z" fill="#5B9BD5" fill-rule="nonzero" fill-opacity="1"/><path d="M696.127 307.599 606.873 307.599C604.137 307.607 601.922 309.823 601.914 312.558L601.914 372.075C601.922 374.811 604.137 377.026 606.873 377.035L642.82 377.035 642.82 389.434 629.186 389.434 629.186 391.913 673.814 391.913 673.814 389.434 660.174 389.434 660.174 377.035 696.127 377.035C698.862 377.027 701.078 374.811 701.085 372.076L701.085 312.558C701.078 309.823 698.862 307.607 696.127 307.599ZM657.695 389.434 645.299 389.434 645.299 377.035 657.695 377.035ZM698.606 372.075C698.605 373.444 697.496 374.553 696.127 374.555L606.873 374.555C605.504 374.553 604.395 373.444 604.393 372.075L604.393 312.558C604.395 311.189 605.504 310.08 606.873 310.078L696.127 310.078C697.496 310.08 698.605 311.189 698.606 312.558Z" fill="#5B9BD5" fill-rule="nonzero" fill-opacity="1"/><path d="M667.257 339.002C663.437 340.183 659.802 341.893 656.456 344.083L656.456 347.122C659.804 344.695 663.515 342.812 667.452 341.545Z" fill="#5B9BD5" fill-rule="nonzero" fill-opacity="1"/><path d="M666.753 332.445C663.116 333.614 659.652 335.269 656.456 337.363L656.456 340.403C659.658 338.076 663.197 336.253 666.949 334.996Z" fill="#5B9BD5" fill-rule="nonzero" fill-opacity="1"/></g></g></g></g></svg>