<?xml version="1.0" encoding="UTF-8" standalone="no"?>
<svg
   xmlns:dc="http://purl.org/dc/elements/1.1/"
   xmlns:cc="http://creativecommons.org/ns#"
   xmlns:rdf="http://www.w3.org/1999/02/22-rdf-syntax-ns#"
   xmlns:svg="http://www.w3.org/2000/svg"
   xmlns="http://www.w3.org/2000/svg"
   xmlns:sodipodi="http://sodipodi.sourceforge.net/DTD/sodipodi-0.dtd"
   xmlns:inkscape="http://www.inkscape.org/namespaces/inkscape"
   inkscape:version="1.0 (4035a4f, 2020-05-01)"
   sodipodi:docname="odata.svg"
   version="1.1"
   viewBox="0 0 202 202"
   height="202"
   width="202"
   data-name="Layer 1"
   id="Layer_1">
  <metadata
     id="metadata1468">
    <rdf:RDF>
      <cc:Work
         rdf:about="">
        <dc:format>image/svg+xml</dc:format>
        <dc:type
           rdf:resource="http://purl.org/dc/dcmitype/StillImage" />
      </cc:Work>
    </rdf:RDF>
  </metadata>
  <sodipodi:namedview
     inkscape:current-layer="Layer_1"
     inkscape:window-maximized="0"
     inkscape:window-y="23"
     inkscape:window-x="0"
     inkscape:cy="101"
     inkscape:cx="101"
     inkscape:zoom="2.9577146"
     showgrid="false"
     id="namedview1466"
     inkscape:window-height="847"
     inkscape:window-width="1408"
     inkscape:pageshadow="2"
     inkscape:pageopacity="0"
     guidetolerance="10"
     gridtolerance="10"
     objecttolerance="10"
     borderopacity="1"
     bordercolor="#666666"
     pagecolor="#ffffff" />
  <defs
     id="defs1446">
    <style
       id="style1444">.cls-1{fill:#fff;}.cls-2{fill:#ff8c00;}</style>
  </defs>
  <title
     id="title1448">Logo_Connector</title>
  <rect
     id="rect1450"
     height="198"
     width="198"
     y="2"
     x="2.19"
     class="cls-1" />
  <g
     id="layer3">
    <g
       id="g5983">
      <rect
         height="111.77"
         width="112.94"
         y="45.6"
         x="43.4"
         class="cls-2"
         id="rect6814" />
      <path
         d="M72.52,149.38a17.59,17.59,0,0,1-15.22-13.2,22,22,0,0,1,0-8.33,19,19,0,0,1,5.39-8.91,17,17,0,0,1,11.6-4.34,17.46,17.46,0,0,1,16.9,12.85,20.69,20.69,0,0,1,0,9.13,17.63,17.63,0,0,1-18.67,12.8Z"
         class="cls-1"
         id="path3764" />
      <rect
         height="10.62"
         width="40.81"
         y="75.76"
         x="53.92"
         class="cls-1"
         id="rect3766-5" />
      <rect
         height="10.62"
         width="40.81"
         y="96.17"
         x="53.87"
         class="cls-1"
         id="rect3766-5-1" />
      <rect
         height="10.62"
         width="40.81"
         y="75.68"
         x="105.11"
         class="cls-1"
         id="rect3766-5-9" />
      <rect
         height="10.62"
         width="40.81"
         y="96.09"
         x="105.06"
         class="cls-1"
         id="rect3766-5-1-8" />
      <rect
         height="10.62"
         width="40.81"
         y="116.49"
         x="105.06"
         class="cls-1"
         id="rect3766-5-1-8-1" />
      <rect
         height="10.62"
         width="40.81"
         y="55.79"
         x="53.92"
         class="cls-1"
         id="rect3766-5-1-1" />
      <rect
         height="10.62"
         width="40.81"
         y="55.7"
         x="105.11"
         class="cls-1"
         id="rect3766-5-1-8-5" />
    </g>
  </g>
</svg>
